<svg width="1162.5" height="87.5" viewBox="0 0 1162.5 87.5" xmlns="http://www.w3.org/2000/svg">
  <defs>
    <linearGradient id="myGradient" x1="0%" y1="0%" x2="100%" y2="0%">
      <stop offset="0%" style="stop-color:#267700;stop-opacity:1" />
      <stop offset="100%" style="stop-color:#00ff95;stop-opacity:1" />
    </linearGradient>
  </defs>
  <g id="svgGroup" fill-rule="evenodd" font-size="9pt" fill="url(#myGradient)">
    <path d="M 512.5 87.5 L 487.5 87.5 L 487.5 0 L 512.5 0 L 512.5 50 L 537.5 50 L 537.5 37.5 L 550 37.5 L 550 25 L 575 25 L 575 37.5 L 562.5 37.5 L 562.5 50 L 550 50 L 550 62.5 L 562.5 62.5 L 562.5 75 L 575 75 L 575 87.5 L 550 87.5 L 550 75 L 537.5 75 L 537.5 62.5 L 512.5 62.5 L 512.5 87.5 Z M 112.5 87.5 L 87.5 87.5 L 87.5 0 L 112.5 0 L 112.5 25 L 162.5 25 L 162.5 37.5 L 175 37.5 L 175 87.5 L 150 87.5 L 150 37.5 L 112.5 37.5 L 112.5 87.5 Z M 275 87.5 L 200 87.5 L 200 75 L 187.5 75 L 187.5 25 L 212.5 25 L 212.5 75 L 250 75 L 250 25 L 275 25 L 275 87.5 Z M 862.5 87.5 L 800 87.5 L 800 75 L 787.5 75 L 787.5 37.5 L 800 37.5 L 800 25 L 862.5 25 L 862.5 37.5 L 875 37.5 L 875 62.5 L 812.5 62.5 L 812.5 75 L 862.5 75 L 862.5 87.5 Z M 62.5 87.5 L 37.5 87.5 L 37.5 75 L 25 75 L 25 62.5 L 12.5 62.5 L 12.5 50 L 0 50 L 0 37.5 L 12.5 37.5 L 12.5 25 L 25 25 L 25 12.5 L 37.5 12.5 L 37.5 0 L 62.5 0 L 62.5 12.5 L 50 12.5 L 50 25 L 37.5 25 L 37.5 37.5 L 25 37.5 L 25 50 L 37.5 50 L 37.5 62.5 L 50 62.5 L 50 75 L 62.5 75 L 62.5 87.5 Z M 1125 87.5 L 1100 87.5 L 1100 75 L 1112.5 75 L 1112.5 62.5 L 1125 62.5 L 1125 50 L 1137.5 50 L 1137.5 37.5 L 1125 37.5 L 1125 25 L 1112.5 25 L 1112.5 12.5 L 1100 12.5 L 1100 0 L 1125 0 L 1125 12.5 L 1137.5 12.5 L 1137.5 25 L 1150 25 L 1150 37.5 L 1162.5 37.5 L 1162.5 50 L 1150 50 L 1150 62.5 L 1137.5 62.5 L 1137.5 75 L 1125 75 L 1125 87.5 Z M 362.5 87.5 L 300 87.5 L 300 75 L 287.5 75 L 287.5 0 L 312.5 0 L 312.5 25 L 362.5 25 L 362.5 37.5 L 375 37.5 L 375 75 L 362.5 75 L 362.5 87.5 Z M 775 87.5 L 700 87.5 L 700 75 L 687.5 75 L 687.5 37.5 L 700 37.5 L 700 25 L 750 25 L 750 0 L 775 0 L 775 87.5 Z M 950 87.5 L 925 87.5 L 925 75 L 912.5 75 L 912.5 62.5 L 900 62.5 L 900 25 L 925 25 L 925 62.5 L 950 62.5 L 950 25 L 975 25 L 975 62.5 L 962.5 62.5 L 962.5 75 L 950 75 L 950 87.5 Z M 475 87.5 L 400 87.5 L 400 75 L 425 75 L 425 37.5 L 412.5 37.5 L 412.5 25 L 450 25 L 450 75 L 475 75 L 475 87.5 Z M 312.5 37.5 L 312.5 75 L 350 75 L 350 37.5 L 312.5 37.5 Z M 712.5 37.5 L 712.5 75 L 750 75 L 750 37.5 L 712.5 37.5 Z M 637.5 87.5 L 612.5 87.5 L 612.5 62.5 L 637.5 62.5 L 637.5 87.5 Z M 812.5 37.5 L 812.5 50 L 850 50 L 850 37.5 L 812.5 37.5 Z M 450 12.5 L 425 12.5 L 425 0 L 450 0 L 450 12.5 Z M 1062.5 0 L 1075 0 L 1075 12.5 L 1062.5 12.5 L 1062.5 0 Z M 1062.5 12.5 L 1050 12.5 L 1050 25 L 1062.5 25 L 1062.5 12.5 Z M 1050 25 L 1037.5 25 L 1037.5 37.5 L 1050 37.5 L 1050 25 Z M 1037.5 37.5 L 1025 37.5 L 1025 50 L 1037.5 50 L 1037.5 37.5 Z M 1025 50 L 1012.5 50 L 1012.5 62.5 L 1025 62.5 L 1025 50 Z M 1012.5 62.5 L 1000 62.5 L 1000 75 L 1012.5 75 L 1012.5 62.5 Z M 1000 75 L 987.5 75 L 987.5 87.5 L 1000 87.5 L 1000 75 Z"/>
  </g>
</svg>
